<svg width="1440" height="201" viewBox="0 0 1440 201" fill="none" xmlns="http://www.w3.org/2000/svg">
<rect width="1440" height="201" fill="white"/>
<g clip-path="url(#clip0_35_78)">
<g clip-path="url(#clip1_35_78)">
<path fill-rule="evenodd" clip-rule="evenodd" d="M626 99.6409C626 86.8602 615.703 76.5 603.003 76.5C590.297 76.5029 580 86.8602 580 99.6437C580 111.191 588.411 120.764 599.404 122.5V106.33H593.568V99.6437H599.41V94.5412C599.41 88.7431 602.845 85.5407 608.097 85.5407C610.615 85.5407 613.245 85.9921 613.245 85.9921V91.6839H610.345C607.49 91.6839 606.599 93.469 606.599 95.3002V99.6409H612.975L611.957 106.327H606.596V122.497C617.589 120.761 626 111.188 626 99.6409Z" fill="#C2410C"/>
</g>
</g>
<g clip-path="url(#clip2_35_78)">
<path d="M682 78.5C676.03 78.5 675.279 78.5275 672.933 78.632C670.588 78.742 668.99 79.1105 667.59 79.655C666.122 80.2073 664.792 81.0735 663.693 82.1933C662.574 83.2924 661.708 84.6222 661.155 86.09C660.61 87.487 660.239 89.0875 660.132 91.425C660.028 93.7762 660 94.5243 660 100.503C660 106.476 660.028 107.224 660.132 109.569C660.242 111.912 660.61 113.51 661.155 114.91C661.719 116.356 662.47 117.583 663.693 118.807C664.914 120.03 666.141 120.784 667.587 121.345C668.99 121.889 670.585 122.261 672.928 122.368C675.276 122.472 676.024 122.5 682 122.5C687.976 122.5 688.721 122.472 691.069 122.368C693.41 122.258 695.013 121.889 696.413 121.345C697.88 120.792 699.209 119.926 700.307 118.807C701.53 117.583 702.281 116.356 702.845 114.91C703.387 113.51 703.758 111.912 703.868 109.569C703.972 107.224 704 106.476 704 100.5C704 94.5243 703.972 93.7763 703.868 91.4278C703.758 89.0875 703.387 87.487 702.845 86.09C702.292 84.6221 701.426 83.2924 700.307 82.1933C699.208 81.0731 697.878 80.2068 696.41 79.655C695.007 79.1105 693.407 78.7393 691.067 78.632C688.718 78.5275 687.973 78.5 681.995 78.5H682.003H682ZM680.028 82.4655H682.003C687.877 82.4655 688.572 82.4848 690.891 82.592C693.036 82.6883 694.202 83.0485 694.977 83.3482C696.003 83.747 696.737 84.2255 697.507 84.9955C698.277 85.7655 698.753 86.497 699.152 87.5255C699.454 88.2983 699.812 89.4643 699.908 91.6093C700.015 93.9275 700.037 94.6233 700.037 100.495C700.037 106.366 700.015 107.064 699.908 109.382C699.812 111.528 699.452 112.691 699.152 113.466C698.799 114.421 698.236 115.285 697.504 115.993C696.734 116.764 696.003 117.239 694.975 117.638C694.205 117.941 693.038 118.298 690.891 118.397C688.572 118.501 687.877 118.526 682.003 118.526C676.129 118.526 675.43 118.501 673.112 118.397C670.967 118.298 669.804 117.941 669.028 117.638C668.073 117.286 667.208 116.724 666.498 115.993C665.766 115.284 665.202 114.42 664.848 113.464C664.549 112.691 664.188 111.525 664.092 109.38C663.987 107.061 663.966 106.366 663.966 100.489C663.966 94.615 663.987 93.922 664.092 91.6037C664.191 89.4587 664.549 88.2928 664.851 87.5173C665.25 86.4915 665.728 85.7572 666.498 84.9872C667.268 84.2172 668 83.7415 669.028 83.3428C669.804 83.0402 670.967 82.6828 673.112 82.5838C675.142 82.4903 675.928 82.4627 680.028 82.46V82.4655ZM693.745 86.1175C693.399 86.1175 693.055 86.1858 692.735 86.3185C692.415 86.4511 692.124 86.6456 691.878 86.8907C691.633 87.1359 691.439 87.4269 691.306 87.7472C691.174 88.0675 691.105 88.4108 691.105 88.7575C691.105 89.1042 691.174 89.4475 691.306 89.7678C691.439 90.0881 691.633 90.3791 691.878 90.6243C692.124 90.8694 692.415 91.0639 692.735 91.1965C693.055 91.3292 693.399 91.3975 693.745 91.3975C694.445 91.3975 695.117 91.1194 695.612 90.6243C696.107 90.1292 696.385 89.4577 696.385 88.7575C696.385 88.0573 696.107 87.3858 695.612 86.8907C695.117 86.3956 694.445 86.1175 693.745 86.1175ZM682.003 89.203C680.504 89.1796 679.016 89.4546 677.625 90.0119C676.233 90.5692 674.967 91.3977 673.899 92.4492C672.831 93.5006 671.983 94.7541 671.404 96.1365C670.825 97.5189 670.527 99.0026 670.527 100.501C670.527 102 670.825 103.484 671.404 104.866C671.983 106.249 672.831 107.502 673.899 108.554C674.967 109.605 676.233 110.434 677.625 110.991C679.016 111.548 680.504 111.823 682.003 111.8C684.969 111.753 687.798 110.543 689.879 108.429C691.96 106.315 693.126 103.468 693.126 100.501C693.126 97.535 691.96 94.6876 689.879 92.5738C687.798 90.46 684.969 89.2493 682.003 89.203ZM682.003 93.1658C683.948 93.1658 685.813 93.9385 687.189 95.3139C688.564 96.6893 689.337 98.5548 689.337 100.5C689.337 102.445 688.564 104.311 687.189 105.686C685.813 107.062 683.948 107.834 682.003 107.834C680.058 107.834 678.192 107.062 676.817 105.686C675.441 104.311 674.668 102.445 674.668 100.5C674.668 98.5548 675.441 96.6893 676.817 95.3139C678.192 93.9385 680.058 93.1658 682.003 93.1658Z" fill="#C2410C"/>
</g>
<g clip-path="url(#clip3_35_78)">
<path d="M750.078 118.5C768.192 118.5 778.101 103.492 778.101 90.4995C778.101 90.0795 778.101 89.6535 778.083 89.2336C780.012 87.8371 781.677 86.1082 783 84.1278C781.198 84.9223 779.288 85.446 777.333 85.6817C779.393 84.4507 780.935 82.5138 781.674 80.231C779.739 81.3774 777.621 82.1821 775.413 82.6099C773.929 81.0291 771.964 79.9818 769.824 79.6303C767.684 79.2789 765.488 79.6428 763.576 80.6658C761.664 81.6888 760.142 83.3138 759.247 85.289C758.352 87.2641 758.134 89.4793 758.625 91.5914C754.709 91.3951 750.878 90.3779 747.381 88.6058C743.884 86.8337 740.798 84.3464 738.324 81.305C737.068 83.4741 736.685 86.0399 737.252 88.4814C737.819 90.9229 739.294 93.0569 741.378 94.4503C739.817 94.3972 738.29 93.978 736.92 93.2263V93.3613C736.923 95.6337 737.71 97.8354 739.149 99.5943C740.587 101.353 742.589 102.561 744.816 103.015C743.971 103.248 743.098 103.364 742.221 103.36C741.603 103.362 740.986 103.304 740.379 103.189C741.008 105.145 742.234 106.855 743.884 108.08C745.534 109.305 747.525 109.983 749.58 110.019C746.09 112.761 741.778 114.247 737.34 114.24C736.558 114.244 735.776 114.198 735 114.105C739.505 116.977 744.736 118.502 750.078 118.5Z" fill="#C2410C"/>
</g>
<g clip-path="url(#clip4_35_78)">
<g clip-path="url(#clip5_35_78)">
<path d="M854.194 115.694H847.379V105.02C847.379 102.475 847.333 99.1981 843.833 99.1981C840.284 99.1981 839.74 101.971 839.74 104.835V115.693H832.925V93.7434H839.468V96.743H839.559C840.214 95.6235 841.16 94.7024 842.297 94.0781C843.434 93.4537 844.719 93.1493 846.015 93.1974C852.923 93.1974 854.197 97.7413 854.197 103.653L854.194 115.694ZM825.234 90.7431C824.452 90.7432 823.687 90.5114 823.037 90.0769C822.386 89.6424 821.879 89.0248 821.58 88.3021C821.28 87.5794 821.202 86.7842 821.354 86.0169C821.507 85.2496 821.883 84.5448 822.436 83.9915C822.99 83.4383 823.694 83.0614 824.461 82.9087C825.229 82.7559 826.024 82.8341 826.747 83.1334C827.469 83.4326 828.087 83.9394 828.522 84.5898C828.957 85.2402 829.189 86.0048 829.189 86.7871C829.189 87.3065 829.087 87.8208 828.888 88.3008C828.689 88.7807 828.398 89.2167 828.031 89.5841C827.664 89.9514 827.228 90.2429 826.748 90.4417C826.268 90.6406 825.754 90.743 825.234 90.7431ZM828.642 115.694H821.819V93.7434H828.642V115.694ZM857.592 76.5031H818.394C817.505 76.4931 816.647 76.8367 816.011 77.4584C815.375 78.0801 815.011 78.929 815 79.8187V119.179C815.011 120.069 815.374 120.919 816.01 121.541C816.647 122.163 817.505 122.507 818.394 122.498H857.592C858.484 122.509 859.344 122.166 859.983 121.544C860.622 120.921 860.987 120.071 861 119.179V79.8159C860.987 78.9244 860.621 78.0745 859.982 77.4528C859.343 76.8311 858.484 76.4885 857.592 76.5003" fill="#C2410C"/>
</g>
</g>
<defs>
<clipPath id="clip0_35_78">
<rect width="48" height="48" fill="white" transform="translate(579 76.5)"/>
</clipPath>
<clipPath id="clip1_35_78">
<rect width="48" height="48" fill="white" transform="translate(579 76.5)"/>
</clipPath>
<clipPath id="clip2_35_78">
<rect width="48" height="48" fill="white" transform="translate(657 76.5)"/>
</clipPath>
<clipPath id="clip3_35_78">
<rect width="48" height="48" fill="white" transform="translate(735 76.5)"/>
</clipPath>
<clipPath id="clip4_35_78">
<rect width="48" height="48" fill="white" transform="translate(813 76.5)"/>
</clipPath>
<clipPath id="clip5_35_78">
<rect width="48" height="48" fill="white" transform="translate(813 76.5)"/>
</clipPath>
</defs>
</svg>
